# xmcd
#
# Track frame offsets: 
#        182
#        15727
#        33715
#        49337
#        64040
#        78145
#        95260
#        109587
#        124747
#        138227
#        153135
#        170392
#        189472
#
# Disc length: 2696 seconds
#
# Revision: 3
# Processed by: cddbd v1.5.2PL0 Copyright (c) Steve Scherf et al.
# Submitted via: ExactAudioCopy v0.95b2
#
DISCID=9e0a860d
DTITLE=Various Artist - The Spirit Of America - Vol 1
DYEAR=1993
DGENRE=
TTITLE0=Stacy Dean Campbell - That Ain't No Mountain
TTITLE1=Joy White - Cold Day In July
TTITLE2=Matthews Wright and King - Mother's Eyes
TTITLE3=Mary Chapin Carpenter - Come On Home
TTITLE4=Larry Boone - It Wouldn't Kill Me
TTITLE5=Joe Diffie - Is It Cold In Here
TTITLE6=Collin Raye - All I Can Be (Is A Sweet Memory)
TTITLE7=Doug Stone - I'd Be Better Off (In A Pine Box)
TTITLE8=Vern Gosdin - I Knew My Day Would Come
TTITLE9=Lyle Lovett - Simple Song
TTITLE10=Ricky Van Shelton - Keep It Between The Lines
TTITLE11=Marty Stuart - Be Careful Who You Love (Arthur's Song)
TTITLE12=Hal Ketchum - Daddy's Oldsmobile
EXTD=Edité en France
EXTT0=
EXTT1=
EXTT2=
EXTT3=
EXTT4=
EXTT5=
EXTT6=
EXTT7=
EXTT8=
EXTT9=
EXTT10=
EXTT11=
EXTT12=
PLAYORDER=
